<svg width="1151" height="1339" viewBox="0 0 1151 1339" fill="none" xmlns="http://www.w3.org/2000/svg" xmlns:xlink="http://www.w3.org/1999/xlink">
<g id="Blocka">
<g id="Group 14">
<path id="floor
1" d="M163.5 1225V1143L507.5 1141H513.5L534.5 1110H567L573.5 1101H627L653.5 1123.5H962V1201H653.5L642.5 1179.5H573.5V1193H516.5L504.5 1225H163.5Z" stroke="black"/>
<path id="floor
2" d="M507.5 1140.5L150 1143V1048L507.5 1046.5H514.5L535 1031.5H566L572 1029H626.5L657 1041.5L975.5 1041L974.5 1123.5H653.5L626.5 1100.5H573.5L566 1109.5H535L513.5 1140.5H507.5Z" stroke="black"/>
<path id="floor
3" d="M149.5 1047.5V954.5L508 955L534.5 953.5H566L572 956H626.5L657 958.5L975.5 959V1040.5L657 1041.5L626.5 1028.5H572L566 1031H534.5L514.5 1046H507.5L149.5 1047.5Z" stroke="black"/>
<path id="floor
4" d="M150 954V861.5L507.5 862.5L515 876.5H566.5L572 883.5H627L663.5 876H975.5V958.5L657 958L626.5 955.5H572L566.5 953.5H534L515 955H508L150 954Z" stroke="black"/>
<path id="floor
5" d="M149.5 861V768.5L507.5 770L515.5 799H567L572 810.5H626.5L656.5 792.5L975.5 793.5V875.5H663.5L626.5 883H572L566.5 876H515L507.5 862L149.5 861Z" stroke="black"/>
<path id="floor
6" d="M150 768V676L507.5 678L514.5 721H566.5L572.5 738H626.5L657.5 709.5L975.5 711V793L656.5 792L626.5 810H572.5L567.5 798.5H516L508 769.5L150 768Z" stroke="black"/>
<path id="floor
7" d="M150 675.5V583L269.5 584L279.5 590.5H507.5L515 644.5L566.5 643L572.5 665H626.5L657.5 627.5H785.5L975.5 630.5V710.5L657.5 709L626 738H572.5L566.5 720.5H515L507.5 678L150 675.5Z" stroke="black"/>
<path id="floor
8" d="M149.5 582V490L515.5 493.5V565.5H566.5L572 592H626.5L657 544.5L975.5 546V630L657.5 626.5L626.5 664.5H573L566.5 642.5L515.5 644L507 584.5L279 583H269L149.5 582Z" stroke="black"/>
<path id="floor
9" d="M149.5 490V397L507.5 401L514 487.5L566.5 488.5L572 520H626.5L657 460.5H778.5L791.5 462.5L975.5 463V545.5L656.5 544.5L626 592H572L566.5 565.5H515.5V493.5L149.5 490Z" stroke="black"/>
<path id="floor
10" d="M150 396.5V304L507.5 309L514.5 411H566.5L572 447H627L657.5 378L975.5 381V462.5H791.5L778.5 460H657.5L627 520H572L566.5 488.5L514.5 487L507.5 400.5L150 396.5Z" stroke="black"/>
<path id="floor
11" d="M150 303.5V212L507 217L513.5 333H566L572.5 374.5H626.5L657.5 295.5L974.5 298L975.5 380.5L657.5 377.5L627 446.5H572.5L566 410.5H514.5L507.5 308.5L150 303.5Z" stroke="black"/>
<path id="floor
12" d="M149.5 211.5V108.5L508 112.5L514.5 255.5H567L572 301.5H626L657.5 201.5L974.5 205.5V297.5L657.5 295.5L626 374.5H573L566 332.5H513.5L507 216.5L149.5 211.5Z" stroke="black"/>
</g>
<rect id="Block A" width="1151" height="1339" fill="url(#pattern0)"/>
</g>
<defs>
<pattern id="pattern0" patternContentUnits="objectBoundingBox" width="1" height="1">
<use xlink:href="#image0" transform="translate(0 -0.0057294) scale(0.000333333)"/>
</pattern>
</defs>
</svg>
