<svg width="26" height="29" viewBox="0 0 26 29" fill="none" xmlns="http://www.w3.org/2000/svg">
<path d="M0.5 28.0316H25.5M3.13713 28.0316V2.71519C3.13713 2.29325 3.44332 1.84993 4.29747 1.87131H6.82911V0.5H19.1709V1.87131H21.9135C22.5814 1.94541 22.771 2.14918 22.8629 2.71519V28.0316H3.13713Z" stroke="white"/>
<rect x="5.95801" y="5.95776" width="1.95359" height="2.79747" rx="0.5" stroke="white"/>
<rect x="12.0762" y="5.95776" width="1.95359" height="2.79747" rx="0.5" stroke="white"/>
<rect x="18.1943" y="5.95776" width="1.95359" height="2.79747" rx="0.5" stroke="white"/>
<rect x="18.1943" y="13.1309" width="1.95359" height="2.79747" rx="0.5" stroke="white"/>
<rect x="12.0762" y="13.1309" width="1.95359" height="2.79747" rx="0.5" stroke="white"/>
<rect x="5.95801" y="13.1309" width="1.95359" height="2.79747" rx="0.5" stroke="white"/>
<rect x="5.95801" y="20.7257" width="1.95359" height="2.79747" rx="0.5" stroke="white"/>
<rect x="18.1943" y="20.7257" width="1.95359" height="2.79747" rx="0.5" stroke="white"/>
<path d="M10.5215 21.2806V28.0316H15.4793V21.2806C15.392 20.5457 15.3873 20.3376 14.6354 20.1202H11.5763C10.8265 20.2721 10.6461 20.5716 10.5215 21.2806Z" stroke="white"/>
</svg>
