<svg width="2326" height="1348" viewBox="0 0 2326 1348" fill="none" xmlns="http://www.w3.org/2000/svg" xmlns:xlink="http://www.w3.org/1999/xlink">
<g id="Blocks">
<rect id="iso view ultra wide  1" y="-1" width="2326" height="1349" fill="url(#pattern0)"/>
<path id="blocka" d="M614.5 613L635.5 602.5L659.5 620.5L660.5 621L656 596.5L670.5 589.5L668.5 576.5L686.5 567.5H688L700 575.5L715 567.5L734.5 581.5L732 561L731.5 559.5L744.5 553L743 540L760 531.5L761.5 531L772.5 538.5H774L787.5 532L789 532.5L802 541L800 523L799.5 521.5L812 515.5L811 504L810.5 503L830 493H831.5L842 500H843L856.5 494L856 487L864.5 483L880 493L881 508.5L885.5 512V505.5L894 502L910 511.5L911.5 531.5L914.5 530L924 536L943 526.5V519.5L950.5 515.5L951.5 515L966.5 525V539.5L968.5 541L968 527.5L971 526.5L981.5 533V534L995 542.5L998.5 593.5L978.5 605L980 619L966.5 626L967.5 646L951.5 634.5L936.5 643L924 634.5L905 645L906 659.5L893.5 666.5L895 677L886 682L873.5 673L856.5 682L844.5 673.5L820.5 686.5L822 701.5L807 710L802 705.5H801L791 711L793 726.5L798 759.5L808 824L812.5 852L805 861.5L807 875L805 875.5L801.5 872.5L801 862.5L785.5 872L787.5 884.5V885.5L785.5 885L781.5 878V874L767 883L769 895.5L767.5 896L763 892V886.5L762.5 885.5L743 896.5V897.5L745.5 910L740 913.5L739 913L736.5 899.5L731.5 896L727.5 899.5L726 899L725 890.5L720.5 886.5L714.5 889H712.5L712 879L703 871.5V876.5L698.5 879L696.5 878.5L694 864L682 854L681 844L680 843L673 848L675.5 857L669 860L667.5 851.5L654 860L656 869L649 873L647 862.5L640.5 857L636.5 860L635 859.5L634 851.5L630.5 848V851.5L624 854L621 839L616.5 835.5V839L610.5 842L607 827.5L595 817L551.5 636L562 631.5L567 636L584 627.5L581.5 615L607.5 602.5L613 607.5L614.5 613Z" fill="#60F9A6" fill-opacity="0.35" stroke="black"/>
<path id="blockb" d="M815.5 872.5L818.5 893.5L830.5 903.5L832 916L833 916.5L838.5 914V910L846 915.5L847.5 929L849 929.5L854 927V922L861 927.5L862 941L864 941.5L868.5 939.5V931.5L874.5 927.5L878 954.5H879.5L884.5 952L883 935L899.5 924.5L901.5 939.5H905L916 948.5L917 962L917.5 963L924 959.5L928 957L932 960V967.5L946.5 978L949.5 976L954.5 979.5L955.5 979L963.5 975L966 1002H967L971.5 993.5V982.5L983.5 975L985.5 975.5L999.5 966V973.5L1004.5 975.5V970V961L1018.5 951.5L1019 961L1023.5 963.5H1025.5L1024.5 942.5L1030.5 944.5L1029.5 928L1034 925.5L1027 809L1026.5 808L1045.5 795.5L1047.5 796.5L1047 785.5L1070 770.5L1082.5 779.5L1098.5 769.5L1127 789.5L1126.5 768.5L1135.5 762.5V746L1155 734L1157 735V658L1139 647L1130.5 652V658.5L1124.5 654.5L1124 637L1107 626.5L1098 631.5V638.5L1084 646.5L1083 611.5L1066.5 600.5L1057 605.5V611.5L1052.5 608.5L1052 591.5L1035.5 581L1026.5 586.5V593L1012 601L1000 593L979.5 604L980 619L975.5 621L966.5 626L968 646.5L951 634.5L936.5 643L924 634.5L905 645L906 659.5L893.5 666.5L895.5 688.5L873.5 672.5L857 682L844.5 673.5L820 686.5L822 701.5L807 710L801 705L791 711L792 717.5L794 730.5L799 765.5L803.5 793L807 817.5L812 847.5L815.5 872.5Z" fill="#60F9A6" fill-opacity="0.35" stroke="black"/>
<path id="blockc" d="M936 472L940.5 526H942.5V519L951.5 514L966.5 524V539.5L971 542.5L971.5 537L979 532.5L995 542.5L998.5 593.5L1000.5 593L1012 600.5L1026.5 592.5L1027 586L1035.5 580.5L1052 592C1052.33 597 1053 607.2 1053 608C1053 608.8 1055.67 610.333 1057 611V605.5L1066.5 600.5L1083 611.5L1085 611L1083.5 554.5L1100 545.5L1103 547.5V536.5L1122.5 526L1134.5 533L1148 526L1161 533.5V518.5L1170 513V499.5L1185.5 490.5L1198 498L1199 497.5L1210 491.5L1222 498.5V484.5L1230 479.5L1229.5 467L1247 457.5L1258 464C1258.33 463.667 1259 463.1 1259 463.5C1259 463.9 1260.33 463.333 1261 463V456L1267.5 453V452L1269.5 398L1269 397C1264.17 394.5 1254.4 389.4 1254 389C1253.6 388.6 1249.17 391.5 1247 393V397.5C1247 397.9 1246.67 398.333 1246.5 398.5L1239.5 395V382L1230 377V350L1214 341.5L1207 344.5C1207.17 346.5 1207.5 350.6 1207.5 351C1207.5 351.4 1202.5 348.5 1200 347L1199.5 334.5L1184 326.5L1177.5 330V336L1167.5 341L1155.5 334.5L1139 342.5V355L1126 361V374.5L1117.5 369L1107 374.5L1097 368.5H1095.5L1080.5 375.5V388L1072 392V406L1059 398L1048 403.5L1037 396.5L1021 405V417L1011 422L1012 434L1009 435L994 426.5L982 432L970.5 424.5L951 435L952 447L947.5 449.5L941.5 445.5L934.5 449.5L936 472Z" fill="#60F9A6" fill-opacity="0.35" stroke="black"/>
<path id="blockd" d="M1083.5 554.5L1086 641V645L1098 638V631L1106.5 626L1124 637C1124.33 642.667 1124.9 654.1 1124.5 654.5C1124 655 1130 657.5 1130.5 658C1130.9 658.4 1130.67 654.167 1130.5 652L1139.5 646.5L1157.5 658V735L1168.5 742.5C1171.67 740 1178.2 735 1179 735C1179.8 735 1184 738 1186 739.5V720.5L1195.5 714V697.5L1213.5 686.5L1226.5 694L1240.5 686.5L1261 700.5L1261.5 683L1269 678.5L1270 661.5L1288 650L1300.5 658L1310 652V640L1310.5 637L1318 632L1319 616.5L1337.5 603.5L1351 610.5L1354.5 608.5V602.5L1371 593L1376 526L1358.5 516.5L1346.5 524.5L1342.5 522.5L1343 508.5L1325.5 499C1324.5 499.667 1322.4 501.1 1322 501.5C1321.6 501.9 1322.5 483.333 1323 474L1307 465L1294 472.5L1292 471V456.5L1274.5 448.5L1261.5 456.5V463.5L1259 465C1256.17 462.667 1249.9 457.9 1247.5 457.5C1245.1 457.1 1235.17 463 1230.5 466V479.5L1222 485V499L1208.5 490.5L1198 497L1186 490.5L1170 500.5V513L1160.5 519V533L1148.5 525L1133.5 533L1122.5 525L1103.5 536.5V547.5L1099 545.5L1083.5 554.5Z" fill="#60F9A6" fill-opacity="0.35" stroke="black"/>
<path id="blocke" d="M1037 992C1036.6 991.2 1030.17 869 1027 808L1046 795L1047.5 796.5L1046.5 785L1069.5 770.5L1082.5 779.5L1098.5 769L1127 789L1126.5 768L1135.5 762.5V746L1155 733.5L1168 742L1179.5 735L1186 739.5V720.5L1195.5 714.5V698L1214 687L1227 694L1239.5 687L1261 700V682.5L1269 678V661.5L1288 650.5L1300 658L1309.5 652.5L1310.5 636L1317.5 632L1319 616L1337.5 603.5L1350.5 611C1351.83 610.167 1354.5 608.4 1354.5 608V602.5L1369.5 592.5L1370.5 593.5L1390 604.5L1389 619L1395.5 622.5L1407.5 614L1428.5 626.5L1425.5 661.5L1431 658L1452.5 670L1451 684.5L1459.5 689.5L1471 681L1493.5 694L1471 866.5L1468 868.5L1459.5 862.5L1449 871L1448 883L1441 888L1427 898.5H1423L1422 902.5L1408 914V921.5L1419 929.5L1418 943.5L1412 947L1407 943.5L1402.5 949C1402.33 952 1402 958.1 1402 958.5C1402 958.9 1401 961 1400.5 962L1395 959.5V952.5L1386.5 958.5L1385.5 972L1379 973V964L1372 969.5L1371 983.5L1366.5 985.5L1365.5 983.5L1366 972C1364.5 970.333 1361.4 967 1361 967C1360.6 967 1357.5 969.667 1356 971L1357.5 975L1353 978V973.5L1349.5 976V982L1348 984.5L1342.5 981.5L1343 973L1336.5 968.5L1335 995.5L1333.5 997V1000.5L1328 997V992.5L1319.5 999V1001L1317.5 1002L1317 1013.5L1316 1015.5L1310.5 1012V1008L1302 1013.5L1301.5 1026.5L1300 1028L1294.5 1024.5L1295 1018L1285.5 1025V1037.5L1279 1034V1022L1273.5 1017.5V1023L1272 1051.5C1270.17 1050.5 1266.4 1048.5 1266 1048.5C1265.6 1048.5 1265.83 1045.5 1266 1044L1254.5 1052.5L1254 1067.5L1247.5 1064V1058L1229.5 1071V1083.5L1229 1086.5L1223.5 1083.5V1077L1215.5 1083.5V1096L1207.5 1100.5V1088.5L1206 1086.5L1199.5 1082V1085.5L1192.5 1084.5V1077L1181.5 1068.5V1071L1179 1074L1175 1072V1063L1172.5 1060.5V1058.5L1158.5 1047V1057L1152 1053V1041L1144 1034.5V1026.5L1138.5 1031L1132.5 1025L1129 1021L1119 1029.5L1120 1042.5L1113.5 1047L1112.5 1034.5L1106 1039V1053L1099.5 1056L1098.5 1044L1082.5 1031.5L1080 1032.5L1074.5 1029.5L1069 1033.5V1025L1064.5 1021V1013.5L1053 1006V1018L1046 1013.5V998.5C1043.17 996.667 1037.4 992.8 1037 992Z" fill="#60F9A6" fill-opacity="0.35" stroke="black"/>
<path id="clubhouse" d="M1507 838L1536 816L1574 864L1582 869.5L1584.5 872.5L1575 879.5L1604 915C1610.69 924.024 1609.95 933.292 1603 937L1602 947.5C1607.53 955.651 1607.32 960.155 1597.5 968L1595.5 979.5C1605.5 987 1604.41 998.615 1594.5 1005.5C1594.84 1012.93 1592.08 1014.65 1587.5 1018L1584.5 1027.5L1554 1052V1053.5L1549 1057.5H1547.5L1539.5 1064.5V1065.5L1534 1069.5L1521.5 1079.5L1522 1081L1514 1087.5L1468 1052L1459 1046.5L1456 1047.5L1446.5 1040.5L1442.5 1040L1409.5 1018L1410.5 1011L1404.5 1007.5C1403.58 1003.53 1404.05 1001.48 1406 998L1411 996L1412 994.5L1414 978C1406 974.5 1405.74 967.196 1414 961.5C1408 956.5 1409 953 1411.5 949L1418.5 944L1419.5 929L1408.5 921C1408.25 918.856 1408.25 917.448 1408.5 914.5L1422.5 902.5L1423.5 899H1427L1448.5 883L1449.5 871.5L1460 863L1469 869L1471.5 866L1487 853.5L1489 841.5L1499 833L1507 838Z" fill="#60F9A6" fill-opacity="0.35" stroke="black"/>
</g>
<defs>
<pattern id="pattern0" patternContentUnits="objectBoundingBox" width="1" height="1">
<use xlink:href="#image0" transform="translate(-0.0001135) scale(0.000244196 0.000421053)"/>
</pattern>
</defs>
</svg>
