<svg width="52" height="52" viewBox="0 0 52 52" fill="none" xmlns="http://www.w3.org/2000/svg">
<path d="M6.87542 21.2393L1.8215 24.5484C0.47109 26.2476 0.756533 27.1026 2.89354 28.478L23.2624 40.4736C25.8317 41.7991 27.2191 41.5448 29.6436 40.0082C29.6436 40.0082 47.1026 29.7706 49.3488 28.478C51.5949 27.1854 51.4928 26.203 49.3488 24.5484C47.2047 22.8938 44.7543 21.4461 44.7543 21.4461" stroke="white" stroke-width="2"/>
<path d="M6.8756 30.8564L1.82638 34.2173C0.475973 35.9165 0.761416 36.7715 2.89842 38.1469L23.2672 50.1425C25.8366 51.468 27.224 51.2137 29.6485 49.6771C29.6485 49.6771 47.1075 39.4395 49.3536 38.1469C51.5998 36.8542 51.4977 35.8718 49.3536 34.2173C47.2096 32.5627 44.7591 31.115 44.7591 31.115" stroke="white" stroke-width="2"/>
<path d="M3.09799 13.9489L23.3647 2.05669C25.4671 0.561397 26.7889 0.73687 29.2865 2.05669L48.9406 13.9489C51.7223 15.6851 51.623 16.779 48.9406 18.9126L29.2865 30.7531C26.9719 32.5923 25.6793 32.764 23.3647 31.4252L3.09799 18.9126C0.581452 16.9741 0.118157 15.8874 3.09799 13.9489Z" stroke="white" stroke-width="2"/>
</svg>
