<svg width="52" height="61" viewBox="0 0 52 61" fill="none" xmlns="http://www.w3.org/2000/svg">
<path id="location" d="M2.49997 25.4024C2.43794 16.7284 5.43182 10.9699 9.72346 7.34429C14.0737 3.66917 19.9809 2 26.0006 2C32.0188 2 37.8918 3.6683 42.2253 7.34207C46.5034 10.9689 49.5 16.7331 49.5 25.4167C49.5 33.8748 44.4976 42.3058 38.7359 48.7693C35.884 51.9686 32.9217 54.5996 30.4608 56.4152C29.2282 57.3246 28.151 58.0076 27.3004 58.4531C26.5044 58.87 26.104 58.972 26.0165 58.9943C26.0089 58.9962 26.0037 58.9976 26.0008 58.9985C25.9978 58.9976 25.9924 58.9962 25.9846 58.9942C25.8967 58.9716 25.4987 58.8696 24.7087 58.4544C23.8618 58.0093 22.7893 57.3267 21.5617 56.4174C19.1111 54.6021 16.1604 51.9712 13.3158 48.7714C7.57027 42.3081 2.56052 33.8708 2.49997 25.4024ZM15.7866 25.4167C15.7866 31.0336 20.3775 35.563 26.0006 35.563C31.6237 35.563 36.2147 31.0336 36.2147 25.4167C36.2147 19.7997 31.6237 15.2703 26.0006 15.2703C20.3775 15.2703 15.7866 19.7997 15.7866 25.4167Z" stroke="#FFC700" stroke-width="4"/>
</svg>
